<?xml version="1.0" standalone="no"?>
<!DOCTYPE svg PUBLIC "-//W3C//DTD SVG 20010904//EN"
 "http://www.w3.org/TR/2001/REC-SVG-20010904/DTD/svg10.dtd">
<svg version="1.0" xmlns="http://www.w3.org/2000/svg"
 width="2500.000000pt" height="2500.000000pt" viewBox="0 0 2500.000000 2500.000000"
 preserveAspectRatio="xMidYMid meet">
<metadata>
Created by potrace 1.11, written by Peter Selinger 2001-2013
</metadata>
<g transform="translate(0.000000,2500.000000) scale(0.100000,-0.100000)"
fill="#000000" stroke="none">
<path d="M0 12500 l0 -12500 12500 0 12500 0 0 12500 0 12500 -12500 0 -12500
0 0 -12500z m14045 10692 c596 -53 949 -108 1381 -217 513 -128 903 -272 1364
-501 981 -489 1749 -1169 2334 -2066 510 -783 841 -1714 971 -2728 85 -673 83
-1443 -6 -2120 -228 -1730 -1051 -3187 -2344 -4150 -733 -546 -1603 -933
-2550 -1134 -344 -73 -629 -113 -1115 -158 -89 -8 -856 -12 -2667 -15 l-2543
-4 0 -4154 0 -4155 -2015 0 -2015 0 0 6100 0 6100 4493 3 4492 3 128 22 c776
130 1363 556 1711 1241 169 331 261 668 297 1081 15 172 6 614 -15 770 -92
661 -338 1187 -737 1576 -342 332 -759 529 -1289 611 -108 16 -373 18 -4597
20 l-4483 3 0 1945 0 1945 4538 -3 c3315 -3 4572 -7 4667 -15z"/>
</g>
</svg>
